<svg width="30" height="30" viewBox="0 0 30 30" fill="none" xmlns="http://www.w3.org/2000/svg">
<path fill-rule="evenodd" clip-rule="evenodd" d="M4.99183 0C2.23492 0 0 2.23858 0 5V25C0 27.7614 2.23492 30 4.99183 30H24.3832C27.1401 30 29.375 27.7614 29.375 25V5C29.375 2.23858 27.1401 0 24.3832 0H4.99183ZM4.03153 6.711C4.03153 8.21939 5.17327 9.32168 6.58166 9.32168C7.99025 9.32168 9.13199 8.21939 9.13199 6.711C9.13199 5.20283 7.99025 4.09927 6.58166 4.09927C5.17327 4.09927 4.03153 5.20283 4.03153 6.711ZM20.6774 25.7828H25.1007V16.847C25.1007 12.4338 22.4335 10.9286 19.9653 10.9286C17.683 10.9286 16.1327 12.4471 15.7046 13.3365V11.3347H11.4506V25.7828H15.874V17.9495C15.874 15.8609 17.1606 14.8451 18.4732 14.8451C19.7146 14.8451 20.6774 15.5632 20.6774 17.8915V25.7828ZM8.79323 11.3235V25.7717H4.37009V11.3235H8.79323Z" fill="white"/>
</svg>
