<svg width="48" height="48" viewBox="0 0 48 48" fill="none" xmlns="http://www.w3.org/2000/svg">
<path d="M0 24C0 10.7452 10.7452 0 24 0C37.2548 0 48 10.7452 48 24C48 37.2548 37.2548 48 24 48C10.7452 48 0 37.2548 0 24Z" fill="#BF2519"/>
<path d="M13.5821 23.444C13.0949 24.2249 12.8892 26.6838 13.0584 28.3158C13.1179 28.8544 13.2154 29.3037 13.3574 29.5717C13.5523 29.9425 13.8798 30.1631 14.2533 30.1766C14.4929 30.1888 14.6417 30.1482 19.1454 28.7002C19.1454 28.7002 21.1469 28.0614 21.1551 28.0574C21.6544 27.9302 21.99 27.4714 22.0225 26.8854C22.055 26.2846 21.7451 25.7541 21.2335 25.5619C21.2335 25.5619 19.8221 24.9868 19.8194 24.9868C14.98 22.9907 14.7622 22.9122 14.5186 22.9095C14.1451 22.8946 13.8135 23.0827 13.5821 23.444Z" fill="white"/>
<path d="M24.408 38.3163C24.4865 38.0889 24.4959 37.9333 24.5095 33.2022C24.5095 33.2022 24.5203 31.1114 24.5216 31.0911C24.5541 30.5782 24.2226 30.1113 23.6799 29.9029C23.121 29.6878 22.5188 29.8204 22.1805 30.2412C22.1805 30.2412 21.1926 31.4132 21.1899 31.4132C17.7999 35.3959 17.6578 35.5799 17.5752 35.8154C17.5252 35.9534 17.5049 36.1023 17.5211 36.2498C17.5414 36.4609 17.6375 36.6693 17.7958 36.8642C18.5821 37.798 22.3523 39.1851 23.5568 38.9794C23.9749 38.9036 24.2794 38.6681 24.408 38.3163Z" fill="white"/>
<path d="M32.0567 36.6695C33.1934 36.2162 35.6727 33.0617 35.8472 31.8478C35.9081 31.4256 35.7755 31.0615 35.4846 30.8288C35.2937 30.6853 35.1489 30.6298 30.6479 29.152C30.6479 29.152 28.6735 28.4998 28.6478 28.4876C28.1701 28.3022 27.6247 28.474 27.258 28.926C26.8763 29.3902 26.8195 30.0033 27.124 30.4661L27.9184 31.7598C30.5897 36.0984 30.7941 36.4056 30.9862 36.5558C31.284 36.79 31.6629 36.8279 32.0567 36.6695Z" fill="white"/>
<path d="M29.7307 25.4995C34.8461 24.2599 35.0437 24.195 35.2453 24.0623C35.5552 23.8539 35.7108 23.5048 35.6838 23.0799C35.6838 23.0663 35.6865 23.0514 35.6838 23.0366C35.5525 21.7807 33.3521 18.5139 32.2681 17.9834C31.8838 17.7994 31.4994 17.8115 31.18 18.0254C30.9825 18.1539 30.8377 18.3488 28.0986 22.0947C28.0986 22.0947 26.8617 23.7795 26.8468 23.7957C26.5207 24.1923 26.5153 24.7606 26.8347 25.2478C27.1649 25.7526 27.7224 25.9989 28.234 25.8568C28.234 25.8568 28.2137 25.8933 28.2082 25.9001C28.4599 25.8054 28.9106 25.6944 29.7307 25.4995Z" fill="white"/>
<path d="M24.5961 21.2758C24.5082 19.2486 23.8978 10.2222 23.8261 9.80403C23.7233 9.42511 23.4269 9.15446 23.002 9.04755C21.696 8.72411 16.7051 10.1221 15.7808 11.0761C15.4831 11.386 15.3735 11.7676 15.4628 12.106C15.609 12.405 21.7921 22.1338 21.7921 22.1338C22.7056 23.6156 23.4512 23.3856 23.6962 23.3084C23.9384 23.234 24.68 23.0039 24.5961 21.2758Z" fill="white"/>
</svg>
