<svg width="30" height="30" viewBox="0 0 30 30" fill="none" xmlns="http://www.w3.org/2000/svg">
<path fill-rule="evenodd" clip-rule="evenodd" d="M15 0C6.71575 0 0 6.71575 0 15C0 23.2843 6.71575 30 15 30C23.2843 30 30 23.2843 30 15C30 6.71575 23.2843 0 15 0ZM15.3728 13.2974C15.3178 12.0304 14.9364 6.38887 14.8916 6.12752C14.8273 5.8907 14.642 5.72154 14.3764 5.65472C13.5603 5.45257 10.4409 6.32631 9.86325 6.92256C9.67719 7.11625 9.60869 7.35481 9.6645 7.56625C9.75581 7.75312 13.6203 13.8336 13.6203 13.8336C14.1912 14.7597 14.6573 14.616 14.8104 14.5677C14.9618 14.5212 15.4253 14.3775 15.3728 13.2974ZM22.0284 15.0389C21.9024 15.1217 21.7789 15.1624 18.5818 15.9371C18.0692 16.0589 17.7876 16.1283 17.6302 16.1874C17.6336 16.1833 17.6463 16.1604 17.6463 16.1604C17.3266 16.2492 16.9781 16.0952 16.7717 15.7798C16.5721 15.4753 16.5755 15.1201 16.7794 14.8722C16.7886 14.8621 17.5617 13.8091 17.5617 13.8091C19.2736 11.4679 19.3641 11.3461 19.4876 11.2657C19.6872 11.1321 19.9274 11.1245 20.1676 11.2395C20.8451 11.5711 22.2204 13.6128 22.3024 14.3977C22.3036 14.404 22.3032 14.4102 22.3028 14.4163C22.3026 14.4192 22.3024 14.4221 22.3024 14.4248C22.3194 14.6904 22.2221 14.9086 22.0284 15.0389ZM8.1615 17.6972C8.05575 16.6772 8.18431 15.1404 8.48881 14.6523C8.63344 14.4265 8.84069 14.3089 9.07413 14.3183C9.22637 14.3199 9.3625 14.369 12.3871 15.6166C12.3888 15.6166 13.2709 15.976 13.2709 15.976C13.5907 16.0961 13.7844 16.4277 13.7641 16.8032C13.7437 17.1694 13.534 17.4562 13.2219 17.5357C13.2168 17.5382 11.9659 17.9374 11.9659 17.9374C9.15106 18.8424 9.05806 18.8678 8.90831 18.8602C8.67488 18.8517 8.47019 18.7139 8.34838 18.4821C8.25962 18.3146 8.19869 18.0339 8.1615 17.6972ZM15.3186 20.7514C15.3102 23.7084 15.3042 23.8056 15.2552 23.9477C15.1749 24.1676 14.9846 24.3148 14.7232 24.3622C13.9704 24.4907 11.6141 23.6237 11.1226 23.0402C11.0237 22.9184 10.9636 22.7881 10.9509 22.6562C10.9408 22.564 10.9534 22.4709 10.9847 22.3847C11.0364 22.2375 11.1252 22.1225 13.2439 19.6333C13.2456 19.6333 13.863 18.9008 13.863 18.9008C14.0745 18.6377 14.4509 18.5549 14.8002 18.6894C15.1393 18.8196 15.3466 19.1114 15.3263 19.432C15.3254 19.4447 15.3186 20.7514 15.3186 20.7514ZM20.0361 22.9185C20.7465 22.6352 22.296 20.6636 22.4051 19.9049C22.4432 19.641 22.3603 19.4135 22.1784 19.268C22.0592 19.1783 21.9687 19.1437 19.1556 18.22C19.1556 18.22 17.9216 17.8123 17.9054 17.8048C17.6069 17.6889 17.2661 17.7963 17.0368 18.0788C16.7983 18.3689 16.7628 18.752 16.9531 19.0413L17.4496 19.8499C19.1192 22.5615 19.2469 22.7535 19.367 22.8474C19.5531 22.9937 19.7899 23.0174 20.0361 22.9185Z" fill="white"/>
</svg>
