<svg width="76" height="63" viewBox="0 0 76 63" fill="none" xmlns="http://www.w3.org/2000/svg">
<path d="M47.2325 15.4197C47.7723 11.3197 41.6763 10.1 41.0825 14.6101L37.986 38.1302L37.986 58.8188" stroke="#97C4AC"/>
<path d="M44.9462 32.7898L48.1509 8.4479C48.8012 3.50843 55.3021 4.82111 54.7109 9.31154" stroke="#97C4AC"/>
<path d="M51.614 32.8335L55.1685 5.83463C55.9333 0.0252845 62.4238 1.41704 61.7285 6.69827L61.3283 9.73791" stroke="#97C4AC"/>
<path d="M59.0658 27.5171L61.3647 9.45925C62.0341 4.3745 68.5333 5.70039 67.9248 10.3229L64.6258 35.3807" stroke="#97C4AC"/>
<path d="M60.3214 42.739C60.8965 38.7455 62.1035 37.4019 64.6269 35.3808L65.8131 26.3713C66.5686 20.6328 73.0599 22.0181 72.3731 27.235L70.1614 44.0345C69.5137 48.9545 65.5635 52.6055 61.0538 52.0118L61.0538 58.9849" stroke="#97C4AC"/>
<path d="M37.411 38.1302L34.3145 14.6101C33.7207 10.1 27.6247 11.3197 28.1644 15.4197" stroke="#97C4AC"/>
<path d="M30.4513 32.7898L27.2466 8.4479C26.5963 3.50843 20.0954 4.82111 20.6865 9.31154" stroke="#97C4AC"/>
<path d="M23.783 32.8335L20.2285 5.83463C19.4637 0.0252848 12.9732 1.41704 13.6685 6.69828L14.0687 9.73791" stroke="#97C4AC"/>
<path d="M16.3312 27.5171L14.0322 9.45925C13.3628 4.3745 6.86366 5.70039 7.47222 10.3229L10.7711 35.3807" stroke="#97C4AC"/>
<path d="M15.0761 42.739C14.5009 38.7455 13.294 37.4019 10.7705 35.3808L9.5844 26.3713C8.82891 20.6328 2.33755 22.0181 3.02436 27.235L5.23606 44.0345C5.8838 48.9545 9.83399 52.6055 14.3436 52.0118L14.3436 58.9849" stroke="#97C4AC"/>
<path fill-rule="evenodd" clip-rule="evenodd" d="M20.6344 24.5492C24.637 20.238 31.4509 19.9203 35.8537 23.8395L37.7228 25.5033L39.5918 23.8395C43.9946 19.9203 50.8085 20.238 54.8111 24.5492C58.8137 28.8603 58.4892 35.5323 54.0864 39.4515L37.7228 54.0177L21.3592 39.4515C16.9564 35.5323 16.6319 28.8603 20.6344 24.5492Z" fill="#F27272"/>
</svg>
