<svg width="48" height="74" viewBox="0 0 48 74" fill="none" xmlns="http://www.w3.org/2000/svg">
<path d="M2.5 37.5C-1.50043 29.5 8.50159 15.5 8.50159 15.5C8.50159 15.5 7.00354 29.272 13.5018 27.5C18.9735 26.0079 18.4198 14.2662 18.1083 10.5939C18.0185 9.92351 18 9.5 18 9.5C18 9.5 18.0499 9.90493 18.1083 10.5939C18.4868 13.4166 20.132 20.6162 27 19C35.499 17 25.5017 0.5 25.5017 0.5C25.5017 0.5 37.4062 5.62486 39.5 14C40.5 18 31.5 31 38 31C44.5 31 41.5017 24.5 41.5017 24.5C41.5017 24.5 48.501 29 47.001 34.5C45.501 40 41.5017 43 41.5017 43C41.5017 43 6.50043 45.5 2.5 37.5Z" fill="#FFA500" fill-opacity="0.5"/>
<path fill-rule="evenodd" clip-rule="evenodd" d="M3.38087 37.2553C8.21046 31.9427 16.4323 31.5512 21.7448 36.3808L24.0001 38.431L26.2553 36.3808C31.5679 31.5512 39.7897 31.9427 44.6193 37.2553C49.4489 42.5678 49.0574 50.7896 43.7448 55.6192L24.0001 73.569L4.25535 55.6192C-1.0572 50.7896 -1.44872 42.5678 3.38087 37.2553Z" fill="#F27272"/>
</svg>
