<svg width="71" height="58" viewBox="0 0 71 58" fill="none" xmlns="http://www.w3.org/2000/svg">
<mask id="mask0_306_47" style="mask-type:alpha" maskUnits="userSpaceOnUse" x="0" y="0" width="71" height="58">
<path fill-rule="evenodd" clip-rule="evenodd" d="M5.00085 6.0837C12.1446 -1.51144 24.306 -2.07118 32.1641 4.8335L35.5 7.76463L38.8359 4.8335C46.694 -2.07118 58.8554 -1.51144 65.9991 6.0837C73.1429 13.6788 72.5638 25.4333 64.7057 32.3379L35.5 58L6.29434 32.3379C-1.56378 25.4333 -2.14289 13.6788 5.00085 6.0837Z" fill="#F27272"/>
</mask>
<g mask="url(#mask0_306_47)">
<rect x="-1" y="-1" width="72" height="10" fill="#FF0000" fill-opacity="0.5"/>
<rect x="-1" y="9" width="72" height="10" fill="#FFA500" fill-opacity="0.5"/>
<rect x="-1" y="19" width="72" height="10" fill="#FFFF00" fill-opacity="0.5"/>
<rect x="-1" y="29" width="72" height="10" fill="#228B22" fill-opacity="0.5"/>
<rect x="-1" y="39" width="72" height="10" fill="#0000FF" fill-opacity="0.5"/>
<rect x="-1" y="49" width="72" height="10" fill="#800080" fill-opacity="0.5"/>
</g>
</svg>
